<?xml version="1.0" encoding="utf-8"?>
<!-- Generator: Adobe Illustrator 25.4.1, SVG Export Plug-In . SVG Version: 6.00 Build 0)  -->
<svg version="1.1" id="Layer_1" xmlns="http://www.w3.org/2000/svg" xmlns:xlink="http://www.w3.org/1999/xlink" x="0px" y="0px"
	 viewBox="0 0 126 125" style="enable-background:new 0 0 126 125;" xml:space="preserve">
<style type="text/css">
	.st0{fill:#FFFFFF;}
	.st1{fill:#6EC827;}
</style>
<g>
	<g>
		<path class="st0" d="M63,8c30.1,0,54.5,24.4,54.5,54.5S93.1,117,63,117S8.5,92.6,8.5,62.5S32.9,8,63,8 M63,0
			C28.5,0,0.5,28,0.5,62.5C0.5,97,28.5,125,63,125s62.5-28,62.5-62.5C125.5,28,97.5,0,63,0L63,0z"/>
	</g>
	<path class="st1" d="M37.9,41h6c0,0,0,29.1,0,31.2c0,2.2,2.8,4.7,3.8,4.7s2.3,0,2.3,0V83c0,0-1.5,0-4.1,0S37,79.3,37,72.8
		c0-6.5,0-31.8,0-31.8H37.9z"/>
	<path class="st1" d="M60.2,41h6c0,0,0,29.1,0,31.2c0,2.2,2.8,4.7,3.8,4.7s2.3,0,2.3,0V83c0,0-1.5,0-4.1,0c-2.6,0-8.9-3.8-8.9-10.3
		c0-6.5,0-31.8,0-31.8H60.2z"/>
	<path class="st1" d="M87.1,41h-6c0,0,0,29.1,0,31.2c0,2.2-2.8,4.7-3.8,4.7s-2.3,0-2.3,0V83c0,0,1.5,0,4.1,0S88,79.3,88,72.8
		c0-6.5,0-31.8,0-31.8H87.1z"/>
	<path class="st1" d="M64.8,41h-6c0,0,0,29.1,0,31.2c0,2.2-2.8,4.7-3.8,4.7s-2.3,0-2.3,0V83c0,0,1.5,0,4.1,0c2.6,0,8.9-3.8,8.9-10.3
		c0-6.5,0-31.8,0-31.8H64.8z"/>
</g>
</svg>
